# xmcd
#
# Track frame offsets: 
#        150
#        13614
#        30056
#        54333
#        74492
#        91582
#        107246
#        127350
#        148240
#        166319
#        181287
#        200924
#
# Disc length: 2890 seconds
#
# Revision: 1
# Processed by: cddbd v1.5.2PL0 Copyright (c) Steve Scherf et al.
# Submitted via: ExactAudioCopyFreeDBPlugin 1.0
#
DISCID=a80b480c
DTITLE=Carrie Rodriguez and The Sacred Hearts - Lola
DYEAR=2016
DGENRE=Country
TTITLE0=Perfidia
TTITLE1=Llano Estacado
TTITLE2=I Dreamed I Was Lola Beltran
TTITLE3=La Ultima Vez
TTITLE4=Que Manera De Perder
TTITLE5=Frio En El Alma
TTITLE6=Z
TTITLE7=Noche De Ronda
TTITLE8=Caricias
TTITLE9=The West Side
TTITLE10=Si No Te Vas- Instrumental
TTITLE11=Si No Te Vas
EXTD=
EXTT0=
EXTT1=
EXTT2=
EXTT3=
EXTT4=
EXTT5=
EXTT6=
EXTT7=
EXTT8=
EXTT9=
EXTT10=
EXTT11=
PLAYORDER=
